<?xml version="1.0" encoding="UTF-8"?>
<svg id="Layer_1" data-name="Layer 1" xmlns="http://www.w3.org/2000/svg" viewBox="0 0 1000 1000">
  <defs>
    <style>
      .cls-1 {
        fill: #1a1a1a;
      }
    </style>
  </defs>
  <path class="cls-1" d="M154.44,427.15c3.24-5.15,4.87-11.43,4.87-18.84s-1.6-13.6-4.76-18.94c-3.14-5.34-7.64-9.42-13.45-12.3-5.83-2.85-12.74-4.29-20.72-4.29h-44.08v20.8h38.51c3.85,0,7.09.55,9.73,1.62,2.64,1.1,4.66,2.75,5.99,4.92,1.36,2.17,2.04,4.89,2.04,8.19s-.68,6.02-2.04,8.11c-1.33,2.09-3.32,3.66-5.97,4.68-2.17.86-4.81,1.36-7.88,1.49h-12.56l30.69,56.9h28.13l-22.13-40.63c5.89-2.69,10.44-6.59,13.63-11.72Z"/>
  <path class="cls-1" d="M249.04,377.67c-7.69-4.24-16.3-6.36-25.88-6.36s-18.21,2.12-25.88,6.36c-7.69,4.24-13.79,10.44-18.26,18.6-4.5,8.16-6.75,18.13-6.75,29.85s2.25,21.64,6.75,29.8c4.47,8.14,10.57,14.34,18.26,18.63,7.67,4.26,16.3,6.41,25.88,6.41s18.18-2.12,25.88-6.36c7.69-4.24,13.81-10.44,18.31-18.6,4.53-8.16,6.78-18.13,6.78-29.88s-2.25-21.69-6.78-29.85c-4.5-8.16-10.62-14.36-18.31-18.6ZM244.83,443.76c-1.96,4.79-4.79,8.42-8.45,10.88s-8.06,3.69-13.21,3.69-9.5-1.23-13.16-3.69c-3.69-2.46-6.51-6.1-8.48-10.88-1.96-4.81-2.96-10.67-2.96-17.63s.99-12.82,2.96-17.61c1.96-4.79,4.79-8.42,8.48-10.88,3.66-2.46,8.06-3.69,13.16-3.69s9.55,1.23,13.21,3.69c3.66,2.46,6.49,6.1,8.45,10.88,1.96,4.79,2.93,10.67,2.93,17.61s-.97,12.82-2.93,17.63Z"/>
  <path class="cls-1" d="M383.1,456.01c4.5-8.16,6.78-18.13,6.78-29.88s-2.28-21.69-6.78-29.85c-4.53-8.16-10.62-14.36-18.31-18.6-7.69-4.24-16.33-6.36-25.88-6.36s-18.24,2.12-25.9,6.36c-7.69,4.24-13.76,10.44-18.26,18.6-4.5,8.16-6.75,18.13-6.75,29.85s2.25,21.64,6.75,29.8c4.5,8.14,10.57,14.34,18.26,18.63,7.67,4.26,16.3,6.41,25.9,6.41s18.18-2.12,25.88-6.36c7.69-4.24,13.79-10.44,18.31-18.6ZM360.55,443.76c-1.96,4.79-4.76,8.42-8.42,10.88-3.66,2.46-8.08,3.69-13.21,3.69s-9.5-1.23-13.19-3.69c-3.69-2.46-6.51-6.1-8.48-10.88-1.96-4.81-2.93-10.67-2.93-17.63s.97-12.82,2.93-17.61c1.96-4.79,4.79-8.42,8.48-10.88,3.69-2.46,8.08-3.69,13.19-3.69s9.55,1.23,13.21,3.69c3.66,2.46,6.46,6.1,8.42,10.88,1.96,4.79,2.96,10.67,2.96,17.61s-.99,12.82-2.96,17.63Z"/>
  <polygon class="cls-1" points="499.08 413.94 499.08 479.5 524.2 479.5 524.2 372.78 492.26 372.78 465.15 438.84 463.92 438.84 436.82 372.78 404.87 372.78 404.87 479.5 429.99 479.5 429.99 413.57 430.88 413.57 456.52 478.82 472.56 478.82 498.19 413.94 499.08 413.94"/>
  <path class="cls-1" d="M598.87,479.5h28.15l-22.16-40.63c5.89-2.69,10.44-6.59,13.66-11.72,3.22-5.15,4.84-11.43,4.84-18.84s-1.57-13.6-4.74-18.94c-3.17-5.34-7.67-9.42-13.47-12.3-5.81-2.85-12.72-4.29-20.72-4.29h-44.09v106.72h25.8v-36.52h13.21l19.52,36.52ZM566.14,393.58h12.72c3.87,0,7.12.55,9.76,1.62,2.64,1.1,4.63,2.75,5.99,4.92,1.33,2.17,2.01,4.89,2.01,8.19s-.68,6.02-2.01,8.11c-1.36,2.09-3.35,3.66-5.97,4.68-2.64,1.02-5.89,1.54-9.78,1.54h-12.72v-29.07Z"/>
  <rect class="cls-1" x="637.49" y="372.78" width="25.8" height="106.72"/>
  <path class="cls-1" d="M729.42,458.13c-2.46.94-5.42,1.41-8.9,1.41-3.77,0-7.09-.6-9.97-1.78-2.88-1.18-5.13-2.9-6.75-5.21-1.62-2.28-2.56-5.15-2.75-8.58h-24.72c.1,8.32,2.01,15.23,5.7,20.67,3.66,5.47,8.82,9.52,15.46,12.19,6.65,2.69,14.42,4.03,23.34,4.03s16.51-1.31,22.81-3.87c6.31-2.56,11.15-6.25,14.49-11.09,3.38-4.84,5.08-10.62,5.13-17.35-.05-4.29-.78-8.14-2.2-11.56-1.44-3.45-3.53-6.49-6.28-9.13-2.77-2.64-6.17-4.92-10.2-6.83-4.06-1.91-8.71-3.43-14-4.58l-9.18-2.09c-2.43-.52-4.6-1.12-6.57-1.81-1.94-.71-3.58-1.52-4.97-2.43-1.36-.92-2.41-1.99-3.11-3.22-.73-1.2-1.05-2.62-.97-4.21.03-1.94.6-3.66,1.7-5.18,1.12-1.52,2.8-2.69,5.02-3.56,2.22-.89,5-1.31,8.32-1.31,5.05,0,8.92,1.07,11.64,3.19,2.75,2.15,4.26,5.13,4.63,8.95h24.7c-.08-6.65-1.81-12.48-5.15-17.5-3.38-5.05-8.11-8.97-14.21-11.77-6.1-2.77-13.29-4.19-21.56-4.19s-15.31,1.39-21.61,4.19c-6.33,2.77-11.28,6.64-14.86,11.62-3.58,4.97-5.34,10.75-5.31,17.35-.03,8.08,2.62,14.52,7.93,19.26,5.31,4.74,12.58,8.16,21.82,10.28l11.15,2.62c3.9.89,7.12,1.88,9.63,2.93,2.51,1.07,4.4,2.33,5.6,3.77,1.23,1.44,1.83,3.17,1.88,5.18-.05,2.15-.71,4.06-2.04,5.73-1.31,1.67-3.19,2.96-5.65,3.9Z"/>
  <polygon class="cls-1" points="850.77 458.54 802.13 458.54 802.13 436.62 846.95 436.62 846.95 415.61 802.13 415.61 802.13 393.74 850.77 393.74 850.77 372.78 776.33 372.78 776.33 479.5 850.77 479.5 850.77 458.54"/>
  <path class="cls-1" d="M151.66,575.6c-2.77-2.64-6.17-4.92-10.2-6.83-4.06-1.91-8.71-3.45-14-4.58l-9.18-2.09c-2.43-.52-4.6-1.12-6.57-1.83-1.94-.68-3.58-1.49-4.97-2.41-1.36-.94-2.41-1.99-3.11-3.22-.73-1.2-1.05-2.62-.97-4.21.03-1.96.6-3.69,1.7-5.18,1.12-1.52,2.8-2.72,5.02-3.58,2.22-.86,5-1.31,8.32-1.31,5.05,0,8.92,1.07,11.67,3.22,2.72,2.12,4.24,5.1,4.6,8.92h24.7c-.08-6.62-1.81-12.45-5.15-17.5-3.37-5.02-8.11-8.95-14.21-11.75-6.1-2.8-13.29-4.19-21.56-4.19s-15.31,1.39-21.61,4.16c-6.33,2.77-11.28,6.65-14.86,11.62-3.58,4.97-5.34,10.75-5.31,17.35-.03,8.11,2.62,14.52,7.93,19.26,5.31,4.76,12.58,8.19,21.82,10.31l11.17,2.59c3.87.92,7.09,1.88,9.6,2.96,2.51,1.05,4.4,2.3,5.6,3.74,1.23,1.44,1.83,3.17,1.88,5.18-.05,2.17-.71,4.08-2.04,5.73-1.31,1.67-3.19,2.98-5.65,3.92-2.46.94-5.42,1.41-8.9,1.41-3.77,0-7.09-.6-9.97-1.78-2.88-1.18-5.13-2.93-6.75-5.21-1.62-2.3-2.54-5.15-2.75-8.61h-24.7c.08,8.35,1.99,15.23,5.68,20.7,3.66,5.44,8.82,9.52,15.46,12.19,6.65,2.67,14.42,4,23.34,4s16.51-1.28,22.81-3.85c6.31-2.56,11.15-6.28,14.49-11.09,3.38-4.84,5.08-10.62,5.13-17.37-.05-4.26-.79-8.11-2.2-11.56-1.44-3.43-3.53-6.46-6.28-9.1Z"/>
  <path class="cls-1" d="M248.83,525.42c-7.69-4.24-16.3-6.36-25.88-6.36s-18.21,2.12-25.87,6.36c-7.69,4.24-13.79,10.44-18.26,18.6-4.5,8.16-6.75,18.11-6.75,29.85s2.25,21.64,6.75,29.77c4.47,8.16,10.57,14.36,18.26,18.63,7.67,4.29,16.3,6.41,25.87,6.41s18.18-2.12,25.88-6.36c7.69-4.24,13.81-10.44,18.31-18.6,4.53-8.16,6.78-18.1,6.78-29.85s-2.25-21.69-6.78-29.85c-4.5-8.16-10.62-14.36-18.31-18.6ZM244.62,591.48c-1.96,4.79-4.79,8.42-8.45,10.88-3.66,2.49-8.06,3.72-13.21,3.72s-9.5-1.23-13.16-3.72c-3.69-2.46-6.51-6.1-8.48-10.88-1.96-4.79-2.96-10.65-2.96-17.61s.99-12.82,2.96-17.61c1.96-4.79,4.79-8.42,8.48-10.91,3.66-2.46,8.06-3.69,13.16-3.69s9.55,1.23,13.21,3.69c3.66,2.49,6.49,6.12,8.45,10.91,1.96,4.79,2.96,10.65,2.96,17.61s-.99,12.82-2.96,17.61Z"/>
  <polygon class="cls-1" points="314.74 520.5 288.94 520.5 288.94 627.22 359.14 627.22 359.14 606.29 314.74 606.29 314.74 520.5"/>
  <path class="cls-1" d="M437.03,587.11c0,3.69-.81,6.96-2.46,9.84-1.62,2.9-3.9,5.15-6.78,6.78-2.9,1.65-6.28,2.46-10.15,2.46s-7.25-.81-10.15-2.46c-2.93-1.62-5.18-3.87-6.8-6.78-1.62-2.88-2.43-6.15-2.43-9.84v-66.61h-25.8v68.84c0,7.98,1.88,14.89,5.63,20.77,3.77,5.89,9.03,10.44,15.8,13.66,6.78,3.22,14.7,4.81,23.76,4.81s16.82-1.6,23.6-4.81c6.78-3.22,12.06-7.77,15.85-13.66s5.68-12.79,5.68-20.77v-68.84h-25.74v66.61Z"/>
  <polygon class="cls-1" points="475.43 541.46 507.85 541.46 507.85 627.22 533.28 627.22 533.28 541.46 565.62 541.46 565.62 520.5 475.43 520.5 475.43 541.46"/>
  <rect class="cls-1" x="578.28" y="520.5" width="25.8" height="106.72"/>
  <path class="cls-1" d="M695.86,525.42c-7.69-4.24-16.3-6.36-25.85-6.36s-18.24,2.12-25.9,6.36c-7.69,4.24-13.76,10.44-18.26,18.6-4.5,8.16-6.75,18.11-6.75,29.85s2.25,21.64,6.75,29.77c4.5,8.16,10.57,14.36,18.26,18.63,7.67,4.29,16.3,6.41,25.9,6.41s18.16-2.12,25.85-6.36c7.72-4.24,13.81-10.44,18.31-18.6,4.53-8.16,6.78-18.1,6.78-29.85s-2.25-21.69-6.78-29.85c-4.5-8.16-10.6-14.36-18.31-18.6ZM691.64,591.48c-1.96,4.79-4.76,8.42-8.42,10.88-3.69,2.49-8.08,3.72-13.21,3.72s-9.52-1.23-13.19-3.72c-3.69-2.46-6.51-6.1-8.48-10.88-1.96-4.79-2.93-10.65-2.93-17.61s.97-12.82,2.93-17.61c1.96-4.79,4.79-8.42,8.48-10.91,3.66-2.46,8.06-3.69,13.19-3.69s9.52,1.23,13.21,3.69c3.66,2.49,6.46,6.12,8.42,10.91,1.96,4.79,2.96,10.65,2.96,17.61s-.99,12.82-2.96,17.61Z"/>
  <polygon class="cls-1" points="801.03 582.01 800.17 582.01 758.15 520.5 735.97 520.5 735.97 627.22 761.76 627.22 761.76 565.63 762.44 565.63 804.9 627.22 826.78 627.22 826.78 520.5 801.03 520.5 801.03 582.01"/>
  <path class="cls-1" d="M924.6,584.7c-1.44-3.43-3.53-6.46-6.28-9.1-2.77-2.64-6.17-4.92-10.23-6.83-4.03-1.91-8.71-3.45-14-4.58l-9.16-2.09c-2.43-.52-4.63-1.12-6.57-1.83-1.94-.68-3.61-1.49-4.97-2.41-1.39-.94-2.41-1.99-3.14-3.22-.71-1.2-1.02-2.62-.97-4.21.05-1.96.63-3.69,1.73-5.18,1.12-1.52,2.77-2.72,5-3.58,2.22-.86,5.02-1.31,8.35-1.31,5.05,0,8.92,1.07,11.64,3.22,2.72,2.12,4.26,5.1,4.6,8.92h24.7c-.05-6.62-1.78-12.45-5.15-17.5-3.37-5.02-8.08-8.95-14.18-11.75-6.1-2.8-13.29-4.19-21.56-4.19s-15.3,1.39-21.61,4.16c-6.33,2.77-11.28,6.65-14.86,11.62-3.58,4.97-5.36,10.75-5.31,17.35-.05,8.11,2.59,14.52,7.9,19.26,5.34,4.76,12.61,8.19,21.85,10.31l11.15,2.59c3.9.92,7.09,1.88,9.63,2.96,2.51,1.05,4.37,2.3,5.6,3.74,1.2,1.44,1.83,3.17,1.86,5.18-.03,2.17-.71,4.08-2.01,5.73-1.33,1.67-3.22,2.98-5.65,3.92-2.46.94-5.42,1.41-8.9,1.41-3.79,0-7.12-.6-9.97-1.78-2.88-1.18-5.13-2.93-6.75-5.21-1.65-2.3-2.56-5.15-2.77-8.61h-24.7c.1,8.35,2.01,15.23,5.68,20.7,3.69,5.44,8.84,9.52,15.49,12.19,6.62,2.67,14.42,4,23.34,4s16.48-1.28,22.79-3.85c6.31-2.56,11.15-6.28,14.52-11.09,3.37-4.84,5.08-10.62,5.1-17.37-.03-4.26-.76-8.11-2.17-11.56Z"/>
  <rect class="cls-1" x="76.29" y="458.34" width="21.17" height="21.17"/>
</svg>